# xmcd
#
# Track frame offsets:
#	150
#	14150
#	24950
#	37650
#	54100
#	76150
#	90215
#	102770
#	118687
#	137697
#	152150
#
# Disc length: 3017 seconds
#
# Revision: 1
# Processed by: cddbd v1.5.2PL0 Copyright (c) Steve Scherf et al.
# Submitted via: audiograbber 1.83.01
#
DISCID=700bc70b
DTITLE=Cracker Jacks - Ka-Looga -Mup
DYEAR=1900
DGENRE=
TTITLE0=Little Green Man
TTITLE1=Run Rudolph Run
TTITLE2=Hey Baby!
TTITLE3=Train Down To Nowhere
TTITLE4=Alone Because I Love You
TTITLE5=Live My Life
TTITLE6=Take My Time
TTITLE7=Lost Teenager
TTITLE8=No Sleep Blues
TTITLE9=Do Me Like You Did Me
TTITLE10=Suzie Q
EXTD=
EXTT0=
EXTT1=
EXTT2=
EXTT3=
EXTT4=
EXTT5=
EXTT6=
EXTT7=
EXTT8=
EXTT9=
EXTT10=
PLAYORDER=
